<svg width="452" height="454" viewBox="0 0 452 454" fill="none" xmlns="http://www.w3.org/2000/svg">
<path fill-rule="evenodd" clip-rule="evenodd" d="M385.776 65.9407C343.315 23.4422 286.865 0.018905 226.728 0C102.806 0 1.94722 100.839 1.8905 224.819C1.8716 264.444 12.2316 303.123 31.9117 337.228L0 453.721L119.177 422.452C152.015 440.374 188.994 449.807 226.615 449.826H226.709C350.613 449.826 451.49 348.968 451.547 224.989C451.584 164.927 428.218 108.42 385.776 65.9407ZM226.728 411.846H226.652C193.115 411.846 160.239 402.828 131.541 385.795L124.716 381.749L53.9928 400.295L72.8789 331.33L68.4362 324.259C49.7202 294.503 39.8518 260.114 39.8707 224.819C39.9085 121.786 123.752 37.9613 226.823 37.9613C276.732 37.9613 323.654 57.4335 358.931 92.7481C394.208 128.082 413.623 175.023 413.604 224.951C413.548 328.021 329.723 411.846 226.728 411.846ZM329.231 271.892C323.616 269.075 295.996 255.483 290.835 253.611C285.693 251.739 281.95 250.794 278.188 256.409C274.425 262.024 263.687 274.69 260.398 278.452C257.127 282.195 253.838 282.668 248.223 279.851C242.608 277.034 224.497 271.117 203.04 251.966C186.347 237.069 175.061 218.674 171.79 213.041C168.519 207.407 171.45 204.382 174.248 201.584C176.781 199.07 179.862 195.024 182.679 191.735C185.515 188.483 186.441 186.139 188.332 182.377C190.204 178.634 189.277 175.344 187.859 172.527C186.441 169.729 175.212 142.071 170.542 130.823C165.986 119.858 161.354 121.351 157.895 121.181C154.624 121.011 150.881 120.992 147.119 120.992C143.376 120.992 137.288 122.391 132.146 128.025C127.004 133.659 112.485 147.251 112.485 174.89C112.485 202.549 132.619 229.261 135.417 233.005C138.215 236.748 175.023 293.501 231.379 317.831C244.782 323.616 255.256 327.076 263.404 329.666C276.864 333.938 289.115 333.334 298.794 331.897C309.589 330.29 332.029 318.304 336.718 305.184C341.406 292.064 341.406 280.796 339.988 278.471C338.589 276.108 334.846 274.709 329.231 271.892Z" fill="white"/>
</svg>
